<svg id="Layer_1" data-name="Layer 1" xmlns="http://www.w3.org/2000/svg" width="380" height="380" viewBox="0 0 380 380">
    <g id="Page-1">
        <g id="wheel">
            <g id="Slice-12">
                <path id="sliceBkg_12" data-name="sliceBkg 12" d="M190,1V190L95.5,26.29A188.13,188.13,0,0,1,190,1Z"
                    fill="#bc84e7" fill-rule="evenodd" />
                <g id="icon_12" data-name="icon 12">
                    <path id="Path"
                        d="M137.11,73.23l-.85-3.2-7.07-26.37a4.14,4.14,0,0,1,2.92-5.07l2.4-.65,4-1.07,19.18-5.14,6.43,24,.86,3.2.85,3.2h0"
                        fill="#289f87" />
                    <g id="Group">
                        <path id="Path-2" data-name="Path"
                            d="M165.41,60.51l-17.59,4.71a4.14,4.14,0,0,1-5.07-2.92l-6.64-24.78,21.58-5.79Z"
                            fill="#208673" />
                        <path id="Path-3" data-name="Path"
                            d="M137.11,73.23l5.6-1.5-.86-3.19-8.14-30.38-1.6.43a4.14,4.14,0,0,0-2.92,5.07Z"
                            fill="#208673" />
                    </g>
                    <path id="Path-4" data-name="Path"
                        d="M167.55,68.5l-26.38,7.07a3.31,3.31,0,0,1-4.06-2.34h0a3.31,3.31,0,0,1,2.34-4l26.38-7.07,1.72,6.39Z"
                        fill="#b9b9b9" />
                    <path id="Path-5" data-name="Path"
                        d="M144.94,60.86l-.86-3.2L137,31.28a4.14,4.14,0,0,1,2.93-5.07l2.39-.64,22.39-6L172.86,50h0"
                        fill="#585858" />
                    <g id="Group-2" data-name="Group">
                        <rect id="Rectangle" x="146.58" y="25.7" width="17.38" height="9.93"
                            transform="translate(-2.65 41.23) rotate(-15)" fill="#848484" />
                        <rect id="Rectangle-2" data-name="Rectangle" x="151.42" y="38.64" width="12.41" height="1.66"
                            transform="translate(-4.84 42.14) rotate(-15)" fill="#848484" />
                        <rect id="Rectangle-3" data-name="Rectangle" x="152.27" y="41.83" width="12.41" height="1.66"
                            transform="translate(-5.64 42.47) rotate(-15)" fill="#848484" />
                        <rect id="Rectangle-4" data-name="Rectangle" x="162.34" y="47.96" width="4.14" height="1.66"
                            transform="translate(-7.02 44.21) rotate(-15)" fill="#848484" />
                    </g>
                    <path id="Path-6" data-name="Path"
                        d="M141.53,25.78l8.14,30.38.86,3.2-5.59,1.5-6.43-24L137,31.28a4.14,4.14,0,0,1,2.93-5.07Z"
                        fill="#6e6e6e" />
                    <path id="Path-7" data-name="Path"
                        d="M165,58.91,149,63.2a3.31,3.31,0,0,1-4.05-2.34h0a3.3,3.3,0,0,1,2.34-4.06L172.86,50l1.71,6.39-3.2.86"
                        fill="#dbdbdb" />
                    <path id="Path-8" data-name="Path"
                        d="M149,63.2l16-4.29,6.39-1.71,3.2-.86-.86-3.2-28.77,7.72A3.31,3.31,0,0,0,149,63.2Z"
                        fill="#b9b9b9" />
                    <polygon id="Path-9" data-name="Path"
                        points="164.12 55.72 170.52 54 173.09 63.59 169.03 61.25 166.69 65.31 164.12 55.72"
                        fill="#dc4d41" />
                    <rect id="Rectangle-5" data-name="Rectangle" x="164.33" y="54.82" width="6.62" height="2.48"
                        transform="translate(-8.8 45.3) rotate(-15)" fill="#c7463b" />
                </g>
            </g>
            <g id="Slice-11">
                <path id="sliceBkg_11" data-name="sliceBkg 11"
                    d="M95.82,26.86,190,190,26.86,95.79A187.53,187.53,0,0,1,95.82,26.86Z" fill="#0b823e"
                    fill-rule="evenodd" />
                <g id="icon_11" data-name="icon 11">
                    <path id="Path-10" data-name="Path"
                        d="M87.61,94.9a1,1,0,0,1-1.35,0C82.47,91,77,91.6,74.29,94.3c-1.76,1.8-2.74,4.69-4,6.45a21.67,21.67,0,0,1-2.48,2.89,4.41,4.41,0,0,1-3.19,1.28,4.61,4.61,0,0,1-3.33-7.8l0,0,0,0a23.36,23.36,0,0,1,2.78-2.4c1.76-1.27,4.61-2.25,6.37-4,2.67-2.7,3.27-8.25-.52-12.08a.93.93,0,0,1-.27-.71,1,1,0,0,1,.31-.68l4.83-4.87L92.41,90Z"
                        fill="#584032" />
                    <path id="Path-11" data-name="Path"
                        d="M91.47,57.47l16,16a1.3,1.3,0,0,1,0,1.87L97.13,85.75a1.3,1.3,0,0,1-1.87,0l-16.09-16a1.3,1.3,0,0,1,0-1.87L89.59,57.47A1.31,1.31,0,0,1,91.47,57.47Z"
                        fill="#f4f0d3" />
                    <polygon id="Path-12" data-name="Path"
                        points="79.09 67.97 97.88 84.96 91.02 91.45 72.64 74.5 79.09 67.97" fill="#d3d5d6" />
                    <path id="Shape"
                        d="M86.48,81.7a1.51,1.51,0,1,0,2.14,0A1.57,1.57,0,0,0,86.48,81.7ZM92,85.08a1.51,1.51,0,1,0,0,2.13A1.54,1.54,0,0,0,92,85.08Z"
                        fill="#bdbfc0" />
                    <path id="Shape-2" data-name="Shape"
                        d="M106.17,72.13a.65.65,0,0,0-.93,0L97.13,80.2a.66.66,0,0,0,.94.94l8.1-8.07A.65.65,0,0,0,106.17,72.13Zm-2.25-2.25a.65.65,0,0,0-.93,0L94.88,78a.66.66,0,0,0,.94.94l8.1-8.07A.65.65,0,0,0,103.92,69.88Zm-4.54-4.5a.65.65,0,0,0-.93,0l-8.11,8a.66.66,0,0,0,.94.94l8.1-8A.65.65,0,0,0,99.38,65.38Zm-2.25-2.25a.65.65,0,0,0-.93,0l-8.11,8a.66.66,0,0,0,.94.94l8.1-8A.65.65,0,0,0,97.13,63.13Zm-2.28-2.29a.66.66,0,0,0-.94,0l-8.07,8.07a.66.66,0,0,0,.94.94l8.07-8A.71.71,0,0,0,94.85,60.84ZM92.6,58.59a.66.66,0,0,0-.94,0l-8.1,8.07a.66.66,0,0,0,.93.94l8.11-8.07A.66.66,0,0,0,92.6,58.59Z"
                        fill="#e8e4c8" />
                    <path id="Path-13" data-name="Path"
                        d="M107.56,73.45l-16.09-16a1.33,1.33,0,0,0-1.88,0l-1.16,1.16,7.13,7.06a2.62,2.62,0,0,1-.6,3.26l-.9,1a1.28,1.28,0,0,0,0,2,1.54,1.54,0,0,0,2.1-.08l-2.78,2.71a1.3,1.3,0,0,0,0,1.91,1.46,1.46,0,0,0,2,0l1.28-1.28a1.36,1.36,0,0,0,0,1.92,1.32,1.32,0,0,0,1.87,0l2.33-2.44a2.69,2.69,0,0,1,3.86,0l1.76,1.72,1.09-1.08a1.26,1.26,0,0,0,0-1.84Z"
                        fill="#fff348" />
                    <path id="Shape-3" data-name="Shape"
                        d="M79.58,72.7a1.51,1.51,0,1,1-2.14,0A1.5,1.5,0,0,1,79.58,72.7ZM83,76.07a1.51,1.51,0,1,1-2.14,0A1.5,1.5,0,0,1,83,76.07Z"
                        fill="#b4b5b6" />
                    <path id="Shape-4" data-name="Shape"
                        d="M95,68.87l-.9,1a1.28,1.28,0,0,0,0,2,1.57,1.57,0,0,0,2,0l.87-.83a1.6,1.6,0,0,1-2.1.08,1.28,1.28,0,0,1,0-2l.9-1a2.69,2.69,0,0,0,.6-3.23l-7.13-7-.75.75,7.13,7A2.63,2.63,0,0,1,95,68.87Zm-.83,6.83a1.35,1.35,0,0,1-.07-1.84l-.68.64a1.3,1.3,0,0,0,0,1.91,1.44,1.44,0,0,0,2,0l.75-.75A1.43,1.43,0,0,1,94.17,75.7Zm3.23.67a1.35,1.35,0,0,1,0-1.91l-.75.75a1.35,1.35,0,0,0,0,1.91,1.3,1.3,0,0,0,1.87,0l.6-.6A1.35,1.35,0,0,1,97.4,76.37Zm9.79-.71L105.42,74a2.66,2.66,0,0,0-3.82,0l-.53.53a2.7,2.7,0,0,1,3.6.19l1.77,1.68,1.08-1.08Z"
                        fill="#bcb22c" />
                </g>
            </g>
            <g id="Slice-10">
                <path id="sliceBkg_10" data-name="sliceBkg 10" d="M26.34,95.5,190,190H1A188.12,188.12,0,0,1,26.34,95.5Z"
                    fill="#ba221a" fill-rule="evenodd" />
                <g id="icon_10" data-name="icon 10">
                    <g id="chemistry-copy">
                        <polyline id="Path-14" data-name="Path"
                            points="47.14 137.17 44.01 136.34 42.78 140.93 45.91 141.77" fill="#bc8f6f" />
                        <polyline id="Path-15" data-name="Path"
                            points="47.14 137.17 44.01 136.34 43.18 139.44 46.3 140.28" fill="#cb9e78" />
                        <polygon id="Path-16" data-name="Path"
                            points="34.25 160.23 31.36 171.05 34.48 171.88 37.38 161.07 34.25 160.23" fill="#bc8f6f" />
                        <polygon id="Path-17" data-name="Path"
                            points="34.25 160.23 32.41 167.13 35.53 167.97 37.38 161.07 34.25 160.23" fill="#cb9e78" />
                        <path id="Path-18" data-name="Path" d="M34.88,170.4,37,162.69l28.74,7.71a4,4,0,1,1-2.06,7.7Z"
                            fill="#e1e1e1" />
                        <path id="Path-19" data-name="Path"
                            d="M68.58,174.07a4,4,0,0,1-4.4,1.72L35.5,168.1,37,162.69l28.68,7.69A4,4,0,0,1,68.58,174.07Z"
                            fill="#f1f1f1" />
                        <path id="Path-20" data-name="Path"
                            d="M68.55,175.29a4,4,0,0,1-4.92,2.81l-17.87-4.79,2.06-7.7,17.87,4.79A4,4,0,0,1,68.55,175.29Z"
                            fill="#cfcb00" />
                        <path id="Path-21" data-name="Path"
                            d="M68.58,174.07a4,4,0,0,1-4.4,1.72L46.38,171l1.44-5.41,17.81,4.77A4,4,0,0,1,68.58,174.07Z"
                            fill="#fefa00" />
                        <path id="Path-22" data-name="Path"
                            d="M73.31,157.52a3.22,3.22,0,0,1-3.94,2.27l-.76-.2a3.25,3.25,0,0,1-1.39-.78l-14-13.32-7.76-2.08,2.07-7.75,7.77,2.08,18.77-4.53a3.17,3.17,0,0,1,1.59,0l.76.2a3.22,3.22,0,0,1,2.28,3.94Z"
                            fill="#e1e1e1" />
                        <path id="Path-23" data-name="Path"
                            d="M70,157.36l-.76-.21a3.1,3.1,0,0,1-1.38-.77l-14-13.28L46.11,141l1.44-5.4,7.77,2.08,18.77-4.49a3.13,3.13,0,0,1,1.58,0l.76.2a3.2,3.2,0,0,1,2.28,3.92L74,155.1A3.21,3.21,0,0,1,70,157.36Z"
                            fill="#f1f1f1" />
                        <path id="Path-24" data-name="Path"
                            d="M69.38,159.79l-.76-.2a3.25,3.25,0,0,1-1.39-.78l-8.67-8.26.32-1.19a1.64,1.64,0,0,1,.75-1l.81-.47a1.59,1.59,0,0,0,.75-1l.07-.27a1.58,1.58,0,0,0-.16-1.22l-.47-.81a1.63,1.63,0,0,1-.16-1.22l.07-.27a1.59,1.59,0,0,1,.75-1l.82-.47a1.59,1.59,0,0,0,.74-1l.08-.26a1.63,1.63,0,0,0-.16-1.22l-.47-.81a1.58,1.58,0,0,1-.16-1.22l.31-1.19,11.64-2.82a3.29,3.29,0,0,1,1.59,0l.76.2a3.22,3.22,0,0,1,2.27,3.94l-5.4,20.15A3.21,3.21,0,0,1,69.38,159.79Z"
                            fill="#0edcff" />
                        <g id="Yellow">
                            <path id="Path-25" data-name="Path"
                                d="M55,155.7l6.64,1.78a7.21,7.21,0,1,1-1.24,4.64l-6.65-1.78" fill="#e1e1e1" />
                            <path id="Path-26" data-name="Path"
                                d="M69.52,154.61a6.47,6.47,0,1,1-8.71,6l-6.65-1.78.83-3.11,6.66,1.78A7.29,7.29,0,0,1,69.52,154.61Z"
                                fill="#f1f1f1" />
                            <path id="Path-27" data-name="Path"
                                d="M65.79,168.54a6.81,6.81,0,0,1-.76-.26l.23-.85a1.64,1.64,0,0,1,.75-1l.81-.46a1.64,1.64,0,0,0,.75-1l.07-.26a1.63,1.63,0,0,0-.16-1.22l-.47-.81a1.63,1.63,0,0,1-.16-1.22l.07-.26a1.59,1.59,0,0,1,.75-1l.81-.47a1.62,1.62,0,0,0,.75-1l.07-.27a1.63,1.63,0,0,0-.16-1.22l-.47-.81a1.6,1.6,0,0,1-.16-1.21l.23-.86a7.9,7.9,0,0,1,.79.16,7.21,7.21,0,1,1-3.74,13.92Z"
                                fill="#44820d" />
                            <path id="Path-28" data-name="Path"
                                d="M74.83,162.7a7.25,7.25,0,0,1-8.64,4.35,6.21,6.21,0,0,1-.61-.2,1.69,1.69,0,0,1,.41-.34l.82-.47a1.58,1.58,0,0,0,.75-1l.07-.26a1.61,1.61,0,0,0,0-.69,1.66,1.66,0,0,0,.32-.6l.07-.27a1.58,1.58,0,0,0-.17-1.22l-.47-.82a1.45,1.45,0,0,1-.19-.54,1.91,1.91,0,0,1,.43-.37l.82-.47a1.63,1.63,0,0,0,.76-1l.07-.26a1.52,1.52,0,0,1,.34-1.29l.07-.27a1.63,1.63,0,0,0-.16-1.22l-.47-.81a1.58,1.58,0,0,1-.18-.5,4.9,4.9,0,0,1,.62.13,7.24,7.24,0,0,1,5.31,8.08Z"
                                fill="#82c31f" />
                            <polygon id="Path-29" data-name="Path"
                                points="54.95 153.17 52.45 162.5 53.94 162.9 56.44 153.57 54.95 153.17" />
                            <polygon id="Path-30" data-name="Path"
                                points="54.95 153.17 52.45 162.5 53.94 162.9 56.44 153.57 54.95 153.17"
                                fill="#bc8f6f" />
                            <polygon id="Path-31" data-name="Path"
                                points="54.95 153.17 53.1 160.07 54.59 160.47 56.44 153.57 54.95 153.17"
                                fill="#cb9e78" />
                            <polygon id="Path-32" data-name="Path"
                                points="57.46 156.31 56.23 160.91 57.72 161.31 58.95 156.71 57.46 156.31"
                                fill="#bc8f6f" />
                            <polygon id="Path-33" data-name="Path"
                                points="57.46 156.31 56.62 159.42 58.12 159.82 58.95 156.71 57.46 156.31"
                                fill="#cb9e78" />
                        </g>
                        <path id="Path-34" data-name="Path" d="M70,145a1.61,1.61,0,1,0-1.15-2A1.61,1.61,0,0,0,70,145Z"
                            fill="#b474d1" />
                        <path id="Path-35" data-name="Path"
                            d="M65.45,149.61a1.61,1.61,0,1,0-1.15-2A1.62,1.62,0,0,0,65.45,149.61Z" fill="#b474d1" />
                        <path id="Path-36" data-name="Path"
                            d="M73.18,139.23a1.61,1.61,0,1,0-1.14-2A1.61,1.61,0,0,0,73.18,139.23Z" fill="#b474d1" />
                        <path id="Path-37" data-name="Path"
                            d="M35.85,145a3.22,3.22,0,1,0-2.29-4A3.23,3.23,0,0,0,35.85,145Z" fill="#0edcff" />
                        <path id="Path-38" data-name="Path"
                            d="M42.45,135.92a1.61,1.61,0,1,0-1.15-2A1.62,1.62,0,0,0,42.45,135.92Z" fill="#0edcff" />
                        <path id="Path-39" data-name="Path"
                            d="M27.45,169.86a2.38,2.38,0,1,0-1.7-2.92A2.39,2.39,0,0,0,27.45,169.86Z" fill="#fefa00" />
                        <path id="Path-Copy" d="M26.65,162.25a1.12,1.12,0,1,0-.87-1.39A1.16,1.16,0,0,0,26.65,162.25Z"
                            fill="#fefa00" />
                        <path id="Path-Copy-3" d="M44.29,160.31a2.38,2.38,0,1,0-1.7-2.91A2.39,2.39,0,0,0,44.29,160.31Z"
                            fill="#82c31f" />
                        <path id="Path-Copy-2" d="M50.91,156a1.12,1.12,0,1,0-.87-1.39A1.15,1.15,0,0,0,50.91,156Z"
                            fill="#82c31f" />
                        <path id="Path-Copy-4" d="M47.84,160.11a.7.7,0,1,0-.5-.86A.71.71,0,0,0,47.84,160.11Z"
                            fill="#82c31f" />
                        <path id="Path-Copy-5"
                            d="M41.49,151.16a.7.7,0,0,0,.37-1.35.71.71,0,0,0-.87.49A.71.71,0,0,0,41.49,151.16Z"
                            fill="#0edcff" />
                        <polygon id="Path-40" data-name="Path"
                            points="50.5 133.87 47.17 146.31 48.66 146.71 51.99 134.27 50.5 133.87" fill="#bc8f6f" />
                        <polygon id="Path-41" data-name="Path"
                            points="50.46 134.01 48.4 141.71 49.89 142.11 51.96 134.41 50.46 134.01" fill="#cb9e78" />
                        <polygon id="Path-42" data-name="Path"
                            points="71.17 150.28 70.77 151.76 72.27 152.16 72.67 150.68 71.17 150.28" fill="#b474d1" />
                        <polygon id="Path-43" data-name="Path"
                            points="69.94 148.35 69.54 149.84 71.03 150.24 71.43 148.75 69.94 148.35" fill="#b474d1" />
                        <polygon id="Path-44" data-name="Path"
                            points="72 147.17 71.6 148.65 73.1 149.06 73.5 147.57 72 147.17" fill="#b474d1" />
                        <polygon id="Path-45" data-name="Path"
                            points="66.6 139.06 66.2 140.54 67.69 140.94 68.09 139.46 66.6 139.06" fill="#b474d1" />
                        <g id="Group-3" data-name="Group">
                            <path id="Combined-Shape"
                                d="M63.86,174l1.56.42.42-1.55-1.56-.42Zm-3.52.73,1.55.41.42-1.55-1.56-.42Zm-2.7-2.39,1.56.41.41-1.55-1.55-.42Zm-3.53.72,1.56.41.41-1.55-1.55-.42Zm-2.69-2.39,1.55.42.42-1.56-1.56-.42Z"
                                fill="#cfcb00" />
                        </g>
                    </g>
                </g>
            </g>
            <g id="Slice-9">
                <path id="sliceBkg_9" data-name="sliceBkg 9" d="M1,190H190L26.29,284.5A188.13,188.13,0,0,1,1,190Z"
                    fill="#ff7d2f" fill-rule="evenodd" />
                <g id="icon_9" data-name="icon 9">
                    <path id="Path-46" data-name="Path"
                        d="M39.08,228.06l1.4,5.21a.31.31,0,0,1,.17-.13l3.42-.91L43.74,231l4,2.29a3.48,3.48,0,0,1,1.2-.64l2.22-.6-9.15-6a1.86,1.86,0,0,0-1.56-.28A1.88,1.88,0,0,0,39.08,228.06Z"
                        fill="#ffd5b3" />
                    <path id="Path-47" data-name="Path"
                        d="M40.41,233.37l.62,2.32,3.13,1.81a.09.09,0,0,0,.13,0l1.78-3.08L45.44,232a.29.29,0,0,0-.37-.21L40.62,233A.3.3,0,0,0,40.41,233.37Z"
                        fill="#08375e" />
                    <path id="Shape-5" data-name="Shape"
                        d="M52.94,244.79A8,8,0,1,0,58.58,235,8,8,0,0,0,52.94,244.79Zm13.37-3.58a5.86,5.86,0,1,1-7.18-4.14A5.86,5.86,0,0,1,66.31,241.21Z" />
                    <path id="Shape-6" data-name="Shape"
                        d="M67,241a6.59,6.59,0,1,1-8.08-4.67A6.61,6.61,0,0,1,67,241Zm-11.31,3a5.11,5.11,0,1,0,3.62-6.27A5.12,5.12,0,0,0,55.71,244.05Z" />
                    <path id="Shape-7" data-name="Shape"
                        d="M44.67,213.94a8,8,0,1,0,5.65-9.78A8,8,0,0,0,44.67,213.94ZM58,210.35a5.86,5.86,0,1,1-7.17-4.14A5.87,5.87,0,0,1,58,210.35Z" />
                    <path id="Shape-8" data-name="Shape"
                        d="M58.76,210.16a6.6,6.6,0,1,1-8.08-4.66A6.61,6.61,0,0,1,58.76,210.16Zm-11.32,3a5.11,5.11,0,1,0,3.62-6.26A5.12,5.12,0,0,0,47.44,213.19Z" />
                    <g id="Group-4" data-name="Group">
                        <path id="Path-48" data-name="Path"
                            d="M58.83,233.19a.4.4,0,0,1-.42-.15.11.11,0,0,0-.12,0l-.92.33,2.11,7.91-8.79-4.85s0,0,0,0L50,237.67,60,243.23a.89.89,0,0,0,1,0,.86.86,0,0,0,.28-.93l-2.43-9.07Z"
                            fill="#368c0e" />
                        <path id="Path-49" data-name="Path"
                            d="M39.42,212.65a2.81,2.81,0,0,0-2,3.45l.68,2.55a1.48,1.48,0,0,1,1.44-.35l-.69-2.59a1.34,1.34,0,0,1,2.58-.69l5,18.81a.2.2,0,0,1,.13,0l.35.21H47a.09.09,0,0,0,.06-.06,2.34,2.34,0,0,1,.73-.85l-3.1-11.57,9.58,5.28a3.09,3.09,0,0,1,.64-1.34L44.2,219.61l-.12-.45,8.75-6.7a.75.75,0,0,0,.27-.78.91.91,0,0,0-.13-.26.75.75,0,0,0-.78-.27.91.91,0,0,0-.26.13l-8.27,6.33-.79-3A2.82,2.82,0,0,0,39.42,212.65Z"
                            fill="#368c0e" />
                    </g>
                    <path id="Path-50" data-name="Path"
                        d="M54.26,228.23a3,3,0,0,0,2.6,2.25l.68-.18a.11.11,0,0,0,.07-.12l-.53-2a.41.41,0,0,1,.28-.49l1.21-.32a.39.39,0,0,1,.48.28l.48,1.77a3.06,3.06,0,1,0-5.27-1.22Z"
                        fill="#9ea7af" />
                    <path id="Path-51" data-name="Path"
                        d="M48.88,232.52A3.15,3.15,0,0,0,47,234.06L50.29,236l8.13-2.92a.35.35,0,0,1-.07-.15l-.73-2.74Z"
                        fill="#ffb98a" />
                    <path id="Path-52" data-name="Path" d="M29.15,236.8a4.12,4.12,0,0,0-2.13-8l-2.1.56,2.13,8,2.1-.56Z"
                        fill="#ffd5b3" />
                    <path id="Path-53" data-name="Path"
                        d="M27.05,237.35l.29-.06,1.81-.49a4.11,4.11,0,0,0,3-3.21l-5.69,1.52Z" fill="#775436" />
                    <path id="Path-54" data-name="Path"
                        d="M21.19,234.67c.59,2.2,2.17,3.68,4.36,3.09l.12,0,.9,3.35a.79.79,0,1,0,1.52-.41l-3-11.31-1.52.41h0C21.33,230.36,20.61,232.47,21.19,234.67Z"
                        fill="#ef5050" />
                    <path id="Path-55" data-name="Path"
                        d="M21.19,234.67l.18.56c-.33-2,.45-3.8,2.46-4.34h0l1.52-.41-.3-1.12-1.52.41h0C21.33,230.36,20.61,232.47,21.19,234.67Z"
                        opacity="0.1" style="isolation:isolate" />
                    <path id="Path-56" data-name="Path"
                        d="M58.54,227.31a.49.49,0,0,1,.61.34l1.26,4.71a.49.49,0,0,1-.35.6l-1.21.33a.49.49,0,0,1-.6-.35L57,228.23a.49.49,0,0,1,.35-.6Z"
                        fill="#0f0f0f" />
                    <g id="Group-5" data-name="Group" opacity="0.1">
                        <path id="Path-57" data-name="Path"
                            d="M59.53,231l-1.2.32a.5.5,0,0,1-.61-.35l.53,2a.49.49,0,0,0,.6.35l1.21-.33a.49.49,0,0,0,.35-.6l-.53-2A.51.51,0,0,1,59.53,231Z"
                            fill="#0f0f0f" />
                    </g>
                    <path id="Path-58" data-name="Path"
                        d="M44.3,237.47l-7.5-4.33a.48.48,0,0,1,.16.26.43.43,0,0,1,0,.25,5.2,5.2,0,0,1-3.75,3.92,5.71,5.71,0,0,1-1.16.18.7.7,0,0,1-.25-.05l.21.13,9,5.23Z"
                        fill="#fcdb67" />
                    <path id="Path-59" data-name="Path"
                        d="M41.77,241.84l-7.64-4.41a5.85,5.85,0,0,1-.74.25,5.71,5.71,0,0,1-1.16.18.55.55,0,0,1-.28-.07l.07,0,9,5.23Z"
                        opacity="0.1" style="isolation:isolate" />
                    <path id="Path-60" data-name="Path"
                        d="M36,219.34l.78,2.93-1.28,5.31-4.24,7.35a2.11,2.11,0,0,0-.21,1.61,2.14,2.14,0,0,0,.89,1.23.56.56,0,0,0,.31.09,5.71,5.71,0,0,0,1.16-.18,5.2,5.2,0,0,0,3.75-3.92.43.43,0,0,0,0-.25.51.51,0,0,0-.24-.32l-.67-.39,2-4.52a.56.56,0,0,0,0-.12l1.16-6.78a.44.44,0,0,0,0-.2h0a1.48,1.48,0,0,1-.67-2.88l.09,0a1,1,0,0,0-1.06-.41l-1.12.3A1,1,0,0,0,36,219.34Z"
                        fill="#ffb98a" />
                    <circle id="Oval" cx="39.13" cy="219.72" r="1.58" fill="#046699" />
                    <path id="Path-61" data-name="Path"
                        d="M28.32,230.54a.8.8,0,0,1-.56,1l-.71.19a.79.79,0,0,1-.41-1.53l.71-.19A.8.8,0,0,1,28.32,230.54Z"
                        fill="#775436" />
                    <path id="Path-62" data-name="Path"
                        d="M46.25,233.87,41,243v0l2.66,1.53a2.13,2.13,0,0,0,2.91-.78l4.21-7.28a.31.31,0,0,0,0-.23.31.31,0,0,0-.14-.18l-4-2.3a.31.31,0,0,0-.41.1Z"
                        fill="#046699" />
                </g>
            </g>
            <g id="Slice-8">
                <path id="sliceBkg_8" data-name="sliceBkg 8"
                    d="M26.86,284.18,190,190,95.79,353.14A187.53,187.53,0,0,1,26.86,284.18Z" fill="#ffc703"
                    fill-rule="evenodd" />
                <g id="icon_8" data-name="icon 8">
                    <polygon id="Path-63" data-name="Path"
                        points="81.97 264.18 115.91 298.12 101.06 303.36 76.74 279.03 81.97 264.18" fill="#f3f3f3" />
                    <path id="Path-64" data-name="Path"
                        d="M82,264.18h0l33.94,33.94h0a2.64,2.64,0,0,0,0-3.67L85.65,264.18A2.65,2.65,0,0,0,82,264.18Z"
                        fill="#ced6e0" />
                    <g id="Group-6" data-name="Group">
                        <polygon id="Path-65" data-name="Path"
                            points="97.24 296.71 96.39 297.28 97.95 298.83 98.87 298.34 97.24 296.71" fill="#415a6b" />
                        <polygon id="Path-66" data-name="Path"
                            points="81.12 280.59 79.5 278.96 79.07 279.95 80.7 281.58 81.12 280.59" fill="#415a6b" />
                        <polygon id="Path-67" data-name="Path"
                            points="81.83 279.17 80.13 277.48 79.71 278.61 81.33 280.23 81.83 279.17" fill="#415a6b" />
                        <polygon id="Path-68" data-name="Path"
                            points="92.86 292.33 92.08 292.96 93.64 294.52 94.48 293.95 92.86 292.33" fill="#415a6b" />
                        <polygon id="Path-69" data-name="Path"
                            points="90.6 290.06 89.89 290.77 91.44 292.33 92.22 291.69 90.6 290.06" fill="#415a6b" />
                        <polygon id="Path-70" data-name="Path"
                            points="95.05 294.52 94.2 295.08 95.76 296.64 96.68 296.14 95.05 294.52" fill="#415a6b" />
                        <polygon id="Path-71" data-name="Path"
                            points="90.1 284.48 90.95 283.49 89.11 281.65 88.33 282.71 90.1 284.48" fill="#415a6b" />
                        <polygon id="Path-72" data-name="Path"
                            points="85.22 279.6 85.93 278.47 84.09 276.63 83.45 277.83 85.22 279.6" fill="#415a6b" />
                        <polygon id="Path-73" data-name="Path"
                            points="98.52 299.4 100.14 301.02 101.13 300.6 99.51 298.97 98.52 299.4" fill="#415a6b" />
                        <polygon id="Path-74" data-name="Path"
                            points="102.9 297.28 104.67 299.04 106.01 298.55 104.17 296.71 102.9 297.28"
                            fill="#415a6b" />
                        <polygon id="Path-75" data-name="Path"
                            points="99.86 294.24 100.99 293.53 91.59 284.12 90.74 285.11 99.86 294.24" fill="#415a6b" />
                        <polygon id="Path-76" data-name="Path"
                            points="101.34 298.12 103.04 299.82 104.31 299.26 102.55 297.49 101.34 298.12"
                            fill="#415a6b" />
                        <polygon id="Path-77" data-name="Path"
                            points="88.4 287.87 87.77 288.65 89.32 290.2 90.03 289.5 88.4 287.87" fill="#415a6b" />
                        <polygon id="Path-78" data-name="Path"
                            points="102.26 296.64 103.47 296 101.63 294.16 100.5 294.87 102.26 296.64" fill="#415a6b" />
                        <polygon id="Path-79" data-name="Path"
                            points="96.32 293.67 95.4 294.31 97.03 295.93 98.02 295.37 96.32 293.67" fill="#415a6b" />
                        <polygon id="Path-80" data-name="Path"
                            points="82.61 277.55 80.84 275.78 80.27 277.05 81.97 278.75 82.61 277.55" fill="#415a6b" />
                        <polygon id="Path-81" data-name="Path"
                            points="83.38 275.92 81.55 274.08 81.05 275.43 82.82 277.19 83.38 275.92" fill="#415a6b" />
                        <polygon id="Path-82" data-name="Path"
                            points="93.71 290.49 94.63 289.57 92.93 287.87 91.94 288.72 93.71 290.49" fill="#415a6b" />
                        <polygon id="Path-83" data-name="Path"
                            points="96.04 292.82 97.03 291.97 95.33 290.27 94.27 291.05 96.04 292.82" fill="#415a6b" />
                        <polygon id="Path-84" data-name="Path"
                            points="98.37 295.15 99.51 294.45 97.74 292.68 96.68 293.46 98.37 295.15" fill="#415a6b" />
                        <polygon id="Path-85" data-name="Path"
                            points="87.06 284.41 86.42 285.33 88.05 286.95 88.76 286.1 87.06 284.41" fill="#415a6b" />
                        <polygon id="Path-86" data-name="Path"
                            points="84.73 282.07 84.16 283.06 85.79 284.69 86.42 283.77 84.73 282.07" fill="#415a6b" />
                        <polygon id="Path-87" data-name="Path"
                            points="89.39 286.74 88.69 287.59 90.31 289.21 91.09 288.44 89.39 286.74" fill="#415a6b" />
                        <polygon id="Path-88" data-name="Path"
                            points="91.66 289 90.88 289.78 92.5 291.41 93.35 290.7 91.66 289" fill="#415a6b" />
                        <polygon id="Path-89" data-name="Path"
                            points="93.99 291.34 93.14 292.04 94.77 293.67 95.69 293.03 93.99 291.34" fill="#415a6b" />
                        <polygon id="Path-90" data-name="Path"
                            points="99.01 295.79 100.71 297.49 101.91 296.85 100.14 295.08 99.01 295.79"
                            fill="#415a6b" />
                        <polygon id="Path-91" data-name="Path"
                            points="91.37 288.15 92.22 287.16 90.53 285.47 89.61 286.39 91.37 288.15" fill="#415a6b" />
                        <polygon id="Path-92" data-name="Path"
                            points="84.16 281.51 82.46 279.81 81.9 280.8 83.6 282.5 84.16 281.51" fill="#415a6b" />
                        <polygon id="Path-93" data-name="Path"
                            points="85.01 279.95 83.24 278.18 82.61 279.39 84.3 281.08 85.01 279.95" fill="#415a6b" />
                        <polygon id="Path-94" data-name="Path"
                            points="81.76 281.22 81.26 282.14 82.82 283.7 83.38 282.85 81.76 281.22" fill="#415a6b" />
                        <polygon id="Path-95" data-name="Path"
                            points="83.38 284.26 83.95 283.42 87.77 287.24 87.13 288.01 83.38 284.26" fill="#415a6b" />
                        <polygon id="Path-96" data-name="Path"
                            points="89.04 285.82 89.82 284.76 88.12 283.06 87.27 284.05 89.04 285.82" fill="#415a6b" />
                        <polygon id="Path-97" data-name="Path"
                            points="86.71 283.35 88.4 280.94 86.57 279.1 85.01 281.65 86.71 283.35" fill="#415a6b" />
                        <polygon id="Path-98" data-name="Path"
                            points="97.6 296.5 101.49 300.39 102.62 299.96 98.59 295.93 97.6 296.5" fill="#415a6b" />
                    </g>
                    <polygon id="Path-99" data-name="Path"
                        points="93.85 278.32 101.77 286.25 96.89 287.87 92.22 283.2 93.85 278.32" fill="#ced6e0" />
                    <path id="Path-100" data-name="Path"
                        d="M84.87,319.55l16.19-16.19L76.74,279l-16.2,16.2a2.12,2.12,0,0,0,0,3L81.9,319.55A2.11,2.11,0,0,0,84.87,319.55Z"
                        fill="#415a6b" />
                    <rect id="Rectangle-6" data-name="Rectangle" x="69.65" y="284.9" width="20.9" height="30.2"
                        transform="translate(-188.67 144.5) rotate(-45)" fill="#55c0eb" />
                </g>
            </g>
            <g id="Slice-7">
                <path id="sliceBkg_7" data-name="sliceBkg 7"
                    d="M95.5,353.66,190,190V379A188.12,188.12,0,0,1,95.5,353.66Z" fill="#024181" fill-rule="evenodd" />
                <g id="icon_7" data-name="icon 7">
                    <g id="Group-7" data-name="Group">
                        <path id="Path-101" data-name="Path"
                            d="M134.62,348.55l2.48-1.66,4.14.83,2.49.83,3.31-.83,2.48.83-1.66,3.31h-3.31l-3.24,1.62A23.87,23.87,0,0,1,134.62,348.55Z"
                            fill="#03aa6f" />
                        <path id="Path-102" data-name="Path"
                            d="M153.66,351.86l.82-2.49,2.49-.82,2.48-4.14,4.14-2.49,5.79-.82v-2.49L167.73,337v-3.31l2.48,1.65,2.48,1.66,1.44,4.33a24,24,0,0,1-13.16,13l-2.35-1.58Z"
                            fill="#03aa6f" />
                        <polygon id="Path-103" data-name="Path"
                            points="152 328.68 152.83 324.54 156.14 321.23 156.14 318.75 159.45 316.27 159.45 312.13 161.93 312.96 163.59 317.1 163.59 325.37 167.73 326.2 169.38 329.51 169.38 331.99 167.73 333.65 165.24 336.13 163.59 332.82 157.79 332.82 155.31 328.68 152 328.68"
                            fill="#03aa6f" />
                        <path id="Path-104" data-name="Path"
                            d="M131.06,343.72a24,24,0,0,1,1.33-25.55l2.23,2.24v3.31l1.66,3.31,1.65,3.31v3.31l2.48,1.65,3.32-.82,5.79,2.48.83,5.79-2.49,2.48h-5l-1.66-2.48-5-.83-5,1.66Z"
                            fill="#03aa6f" />
                    </g>
                    <path id="Path-105" data-name="Path"
                        d="M147,347.72l-3.31.83-2.49-.83-4.14-.83-2.48,1.66a24,24,0,0,1-3.56-4.83l.25-.14,5-1.66,5,.83,1.66,2.48h5l2.49-2.48-.83-5.79-5.79-2.48-3.32.82-2.48-1.65v-3.31L136.28,327l-1.66-3.31v-3.31l-2.23-2.24a24,24,0,0,1,41.74,23.12L172.69,337l-2.48-1.66-2.48-1.65,1.65-1.66v-2.48l-1.65-3.31-4.14-.83v-8.28L161.93,313l-2.48-.83v4.14l-3.31,2.48v2.48l-3.31,3.31-.83,4.14h3.31l2.49,4.14h5.79l1.65,3.31,2.49-2.48V337l1.65,1.65v2.49l-5.79.82-4.14,2.49L157,348.55l-2.49.82-.82,2.49,5,.82,2.35,1.58a24,24,0,0,1-19.66-.78l3.24-1.62h3.31l1.66-3.31Z"
                        fill="#86daf1" />
                </g>
            </g>
            <g id="Slice-6">
                <path id="sliceBkg_6" data-name="sliceBkg 6" d="M190,379V190l94.5,163.71A188.13,188.13,0,0,1,190,379Z"
                    fill="#bc84e7" fill-rule="evenodd" />
                <g id="icon_6" data-name="icon 6">
                    <path id="Path-106" data-name="Path"
                        d="M242.89,306.77l.85,3.2,7.07,26.37a4.14,4.14,0,0,1-2.92,5.07l-2.4.65-4,1.07-19.18,5.14-6.43-24-.86-3.2-.85-3.2h0"
                        fill="#289f87" />
                    <g id="Group-8" data-name="Group">
                        <path id="Path-107" data-name="Path"
                            d="M214.59,319.49l17.59-4.71a4.14,4.14,0,0,1,5.07,2.92l6.64,24.78-21.58,5.79Z"
                            fill="#208673" />
                        <path id="Path-108" data-name="Path"
                            d="M242.89,306.77l-5.6,1.5.86,3.19,8.14,30.38,1.6-.43a4.14,4.14,0,0,0,2.92-5.07Z"
                            fill="#208673" />
                    </g>
                    <path id="Path-109" data-name="Path"
                        d="M212.45,311.5l26.38-7.07a3.31,3.31,0,0,1,4.06,2.34h0a3.31,3.31,0,0,1-2.34,4.05l-26.38,7.07-1.72-6.39Z"
                        fill="#b9b9b9" />
                    <path id="Path-110" data-name="Path"
                        d="M235.06,319.14l.86,3.2L243,348.72a4.14,4.14,0,0,1-2.93,5.07l-2.39.64-22.39,6-8.14-30.38h0"
                        fill="#585858" />
                    <g id="Group-9" data-name="Group">
                        <rect id="Rectangle-7" data-name="Rectangle" x="216.04" y="344.37" width="17.38" height="9.93"
                            transform="matrix(0.97, -0.26, 0.26, 0.97, -82.76, 70.07)" fill="#848484" />
                        <rect id="Rectangle-8" data-name="Rectangle" x="216.17" y="339.71" width="12.41" height="1.66"
                            transform="translate(-80.56 69.16) rotate(-15)" fill="#848484" />
                        <rect id="Rectangle-9" data-name="Rectangle" x="215.31" y="336.51" width="12.41" height="1.66"
                            transform="translate(-79.76 68.83) rotate(-15)" fill="#848484" />
                        <rect id="Rectangle-10" data-name="Rectangle" x="213.52" y="330.39" width="4.14" height="1.66"
                            transform="translate(-78.38 67.09) rotate(-15)" fill="#848484" />
                    </g>
                    <path id="Path-111" data-name="Path"
                        d="M238.47,354.22l-8.14-30.38-.86-3.2,5.59-1.5,6.43,24,1.5,5.59a4.14,4.14,0,0,1-2.93,5.07Z"
                        fill="#6e6e6e" />
                    <path id="Path-112" data-name="Path"
                        d="M215,321.09l16-4.29a3.31,3.31,0,0,1,4.05,2.34h0a3.3,3.3,0,0,1-2.34,4.06l-25.58,6.85-1.71-6.39,3.2-.86"
                        fill="#dbdbdb" />
                    <path id="Path-113" data-name="Path"
                        d="M231,316.8l-16,4.29-6.39,1.71-3.2.86.86,3.2,28.77-7.72A3.31,3.31,0,0,0,231,316.8Z"
                        fill="#b9b9b9" />
                    <polygon id="Path-114" data-name="Path"
                        points="215.88 324.29 209.48 326 206.91 316.41 210.97 318.75 213.31 314.69 215.88 324.29"
                        fill="#dc4d41" />
                    <rect id="Rectangle-11" data-name="Rectangle" x="209.05" y="322.7" width="6.62" height="2.48"
                        transform="translate(-76.61 66) rotate(-15)" fill="#c7463b" />
                </g>
            </g>
            <g id="Slice-5">
                <path id="sliceBkg_5" data-name="sliceBkg 5"
                    d="M284.18,353.14,190,190l163.14,94.21A187.53,187.53,0,0,1,284.18,353.14Z" fill="#0b823e"
                    fill-rule="evenodd" />
                <g id="icon_5" data-name="icon 5">
                    <path id="Path-115" data-name="Path"
                        d="M292.39,285.1a1,1,0,0,1,1.35,0c3.79,3.87,9.31,3.27,12,.57,1.76-1.8,2.74-4.69,4-6.45a21.67,21.67,0,0,1,2.48-2.89,4.41,4.41,0,0,1,3.19-1.28,4.61,4.61,0,0,1,3.33,7.8l0,0,0,0a23.36,23.36,0,0,1-2.78,2.4c-1.76,1.27-4.61,2.25-6.37,4.05-2.67,2.7-3.27,8.25.52,12.08a.93.93,0,0,1,.27.71,1,1,0,0,1-.31.68l-4.83,4.87L287.59,290Z"
                        fill="#584032" />
                    <path id="Path-116" data-name="Path"
                        d="M288.53,322.53l-16-16a1.3,1.3,0,0,1,0-1.87l10.39-10.39a1.3,1.3,0,0,1,1.87,0l16.09,16a1.3,1.3,0,0,1,0,1.87l-10.42,10.39A1.31,1.31,0,0,1,288.53,322.53Z"
                        fill="#f4f0d3" />
                    <polygon id="Path-117" data-name="Path"
                        points="300.91 312.03 282.12 295.04 288.98 288.55 307.36 305.5 300.91 312.03" fill="#d3d5d6" />
                    <path id="Shape-9" data-name="Shape"
                        d="M293.52,298.3a1.51,1.51,0,1,0-2.14,0A1.57,1.57,0,0,0,293.52,298.3ZM288,294.92a1.51,1.51,0,1,0,0-2.13A1.54,1.54,0,0,0,288,294.92Z"
                        fill="#bdbfc0" />
                    <path id="Shape-10" data-name="Shape"
                        d="M273.83,307.87a.65.65,0,0,0,.93,0l8.11-8.07a.66.66,0,0,0-.94-.94l-8.1,8.07A.65.65,0,0,0,273.83,307.87Zm2.25,2.25a.65.65,0,0,0,.93,0l8.11-8.07a.66.66,0,0,0-.94-.94l-8.1,8.07A.65.65,0,0,0,276.08,310.12Zm4.54,4.5a.65.65,0,0,0,.93,0l8.11-8a.66.66,0,0,0-.94-.94l-8.1,8A.65.65,0,0,0,280.62,314.62Zm2.25,2.25a.65.65,0,0,0,.93,0l8.11-8a.66.66,0,0,0-.94-.94l-8.1,8A.65.65,0,0,0,282.87,316.87Zm2.28,2.29a.66.66,0,0,0,.94,0l8.07-8.07a.66.66,0,0,0-.94-.94l-8.07,8A.71.71,0,0,0,285.15,319.16Zm2.25,2.25a.66.66,0,0,0,.94,0l8.1-8.07a.66.66,0,1,0-.93-.94l-8.11,8.07A.66.66,0,0,0,287.4,321.41Z"
                        fill="#e8e4c8" />
                    <path id="Path-118" data-name="Path"
                        d="M272.44,306.55l16.09,16a1.33,1.33,0,0,0,1.88,0l1.16-1.16-7.13-7.06a2.62,2.62,0,0,1,.6-3.26l.9-1a1.28,1.28,0,0,0,0-2,1.54,1.54,0,0,0-2.1.08l2.78-2.71a1.3,1.3,0,0,0,0-1.91,1.46,1.46,0,0,0-2,0l-1.28,1.28a1.36,1.36,0,0,0,0-1.92,1.32,1.32,0,0,0-1.87,0l-2.33,2.44a2.69,2.69,0,0,1-3.86,0l-1.76-1.72-1.09,1.08a1.26,1.26,0,0,0,0,1.84Z"
                        fill="#fff348" />
                    <path id="Shape-11" data-name="Shape"
                        d="M300.42,307.3a1.51,1.51,0,1,1,2.14,0A1.5,1.5,0,0,1,300.42,307.3ZM297,303.93a1.51,1.51,0,1,1,2.14,0A1.5,1.5,0,0,1,297,303.93Z"
                        fill="#b4b5b6" />
                    <path id="Shape-12" data-name="Shape"
                        d="M285,311.13l.9-1.05a1.28,1.28,0,0,0,0-1.95,1.57,1.57,0,0,0-2,0l-.87.83a1.6,1.6,0,0,1,2.1-.08,1.28,1.28,0,0,1,0,2l-.9,1a2.69,2.69,0,0,0-.6,3.23l7.13,7,.75-.75-7.13-7A2.63,2.63,0,0,1,285,311.13Zm.83-6.83a1.35,1.35,0,0,1,.07,1.84l.68-.64a1.3,1.3,0,0,0,0-1.91,1.44,1.44,0,0,0-2,0l-.75.75A1.43,1.43,0,0,1,285.83,304.3Zm-3.23-.67a1.35,1.35,0,0,1,0,1.91l.75-.75a1.35,1.35,0,0,0,0-1.91,1.3,1.3,0,0,0-1.87,0l-.6.6A1.35,1.35,0,0,1,282.6,303.63Zm-9.79.71,1.77,1.69a2.66,2.66,0,0,0,3.82,0l.53-.53a2.7,2.7,0,0,1-3.6-.19l-1.77-1.68-1.08,1.08Z"
                        fill="#bcb22c" />
                </g>
            </g>
            <g id="Slice-4">
                <path id="sliceBkg_4" data-name="sliceBkg 4"
                    d="M353.66,284.5,190,190H379A188.12,188.12,0,0,1,353.66,284.5Z" fill="#ba221a"
                    fill-rule="evenodd" />
                <g id="icon_4" data-name="icon 4">
                    <g id="chemistry-copy-2" data-name="chemistry-copy">
                        <polyline id="Path-119" data-name="Path"
                            points="332.86 242.83 335.99 243.66 337.22 239.07 334.1 238.23" fill="#bc8f6f" />
                        <polyline id="Path-120" data-name="Path"
                            points="332.86 242.83 335.99 243.66 336.82 240.56 333.7 239.72" fill="#cb9e78" />
                        <polygon id="Path-121" data-name="Path"
                            points="345.75 219.77 348.64 208.95 345.52 208.12 342.62 218.93 345.75 219.77"
                            fill="#bc8f6f" />
                        <polygon id="Path-122" data-name="Path"
                            points="345.75 219.77 347.59 212.87 344.47 212.03 342.62 218.93 345.75 219.77"
                            fill="#cb9e78" />
                        <path id="Path-123" data-name="Path" d="M345.12,209.6l-2.07,7.71-28.74-7.71a4,4,0,1,1,2.06-7.7Z"
                            fill="#e1e1e1" />
                        <path id="Path-124" data-name="Path"
                            d="M311.42,205.93a4,4,0,0,1,4.4-1.72l28.68,7.69-1.45,5.41-28.68-7.69A4,4,0,0,1,311.42,205.93Z"
                            fill="#f1f1f1" />
                        <path id="Path-125" data-name="Path"
                            d="M311.45,204.71a4,4,0,0,1,4.92-2.81l17.87,4.79-2.06,7.7-17.87-4.79A4,4,0,0,1,311.45,204.71Z"
                            fill="#cfcb00" />
                        <path id="Path-126" data-name="Path"
                            d="M311.42,205.93a4,4,0,0,1,4.4-1.72l17.8,4.77-1.44,5.41-17.81-4.77A4,4,0,0,1,311.42,205.93Z"
                            fill="#fefa00" />
                        <path id="Path-127" data-name="Path"
                            d="M306.69,222.48a3.22,3.22,0,0,1,3.94-2.27l.76.2a3.25,3.25,0,0,1,1.39.78l14,13.32,7.76,2.08-2.07,7.75-7.77-2.08-18.77,4.53a3.17,3.17,0,0,1-1.59,0l-.76-.2a3.22,3.22,0,0,1-2.28-3.94Z"
                            fill="#e1e1e1" />
                        <path id="Path-128" data-name="Path"
                            d="M310,222.64l.76.21a3.1,3.1,0,0,1,1.38.77l14,13.28,7.76,2.08-1.44,5.4-7.77-2.08-18.77,4.49a3.13,3.13,0,0,1-1.58,0l-.76-.2a3.2,3.2,0,0,1-2.28-3.92L306,224.9A3.21,3.21,0,0,1,310,222.64Z"
                            fill="#f1f1f1" />
                        <path id="Path-129" data-name="Path"
                            d="M310.62,220.21l.76.2a3.25,3.25,0,0,1,1.39.78l8.67,8.26-.32,1.19a1.64,1.64,0,0,1-.75,1l-.81.47a1.59,1.59,0,0,0-.75,1l-.07.27a1.58,1.58,0,0,0,.16,1.22l.47.81a1.63,1.63,0,0,1,.16,1.22l-.07.27a1.59,1.59,0,0,1-.75,1l-.82.47a1.59,1.59,0,0,0-.74,1l-.08.26a1.63,1.63,0,0,0,.16,1.22l.47.81a1.58,1.58,0,0,1,.16,1.22l-.31,1.19-11.64,2.82a3.29,3.29,0,0,1-1.59,0l-.76-.2a3.22,3.22,0,0,1-2.27-3.94l5.4-20.15A3.21,3.21,0,0,1,310.62,220.21Z"
                            fill="#0edcff" />
                        <g id="Yellow-2" data-name="Yellow">
                            <path id="Path-130" data-name="Path"
                                d="M325,224.3l-6.64-1.78a7.21,7.21,0,1,1,1.24-4.64l6.65,1.78" fill="#e1e1e1" />
                            <path id="Path-131" data-name="Path"
                                d="M310.48,225.39a6.47,6.47,0,1,1,8.71-6l6.65,1.78-.83,3.11-6.66-1.78A7.29,7.29,0,0,1,310.48,225.39Z"
                                fill="#f1f1f1" />
                            <path id="Path-132" data-name="Path"
                                d="M314.21,211.46a6.81,6.81,0,0,1,.76.26l-.23.85a1.64,1.64,0,0,1-.75,1l-.81.46a1.64,1.64,0,0,0-.75,1l-.07.26a1.63,1.63,0,0,0,.16,1.22l.47.81a1.63,1.63,0,0,1,.16,1.22l-.07.26a1.59,1.59,0,0,1-.75,1l-.81.47a1.62,1.62,0,0,0-.75,1l-.07.27a1.63,1.63,0,0,0,.16,1.22l.47.81a1.6,1.6,0,0,1,.16,1.21l-.23.86a7.9,7.9,0,0,1-.79-.16,7.21,7.21,0,1,1,3.74-13.92Z"
                                fill="#44820d" />
                            <path id="Path-133" data-name="Path"
                                d="M305.17,217.3a7.25,7.25,0,0,1,8.64-4.35,6.21,6.21,0,0,1,.61.2,1.69,1.69,0,0,1-.41.34l-.82.47a1.58,1.58,0,0,0-.75,1l-.07.26a1.61,1.61,0,0,0,0,.69,1.66,1.66,0,0,0-.32.6l-.07.27a1.58,1.58,0,0,0,.17,1.22l.47.82a1.45,1.45,0,0,1,.19.54,1.91,1.91,0,0,1-.43.37l-.82.47a1.63,1.63,0,0,0-.76,1l-.07.26a1.52,1.52,0,0,1-.34,1.29l-.07.27a1.63,1.63,0,0,0,.16,1.22l.47.81a1.58,1.58,0,0,1,.18.5,4.9,4.9,0,0,1-.62-.13,7.24,7.24,0,0,1-5.31-8.08Z"
                                fill="#82c31f" />
                            <polygon id="Path-134" data-name="Path"
                                points="325.06 226.83 327.55 217.5 326.06 217.1 323.56 226.43 325.06 226.83" />
                            <polygon id="Path-135" data-name="Path"
                                points="325.06 226.83 327.55 217.5 326.06 217.1 323.56 226.43 325.06 226.83"
                                fill="#bc8f6f" />
                            <polygon id="Path-136" data-name="Path"
                                points="325.06 226.83 326.9 219.93 325.41 219.53 323.56 226.43 325.06 226.83"
                                fill="#cb9e78" />
                            <polygon id="Path-137" data-name="Path"
                                points="322.54 223.69 323.77 219.09 322.28 218.69 321.05 223.29 322.54 223.69"
                                fill="#bc8f6f" />
                            <polygon id="Path-138" data-name="Path"
                                points="322.54 223.69 323.38 220.58 321.88 220.18 321.05 223.29 322.54 223.69"
                                fill="#cb9e78" />
                        </g>
                        <path id="Path-139" data-name="Path"
                            d="M310,235a1.61,1.61,0,1,0,1.15,2A1.61,1.61,0,0,0,310,235Z" fill="#b474d1" />
                        <path id="Path-140" data-name="Path"
                            d="M314.55,230.39a1.61,1.61,0,1,0,1.15,2A1.62,1.62,0,0,0,314.55,230.39Z" fill="#b474d1" />
                        <path id="Path-141" data-name="Path"
                            d="M306.82,240.77a1.61,1.61,0,1,0,1.14,2A1.61,1.61,0,0,0,306.82,240.77Z" fill="#b474d1" />
                        <path id="Path-142" data-name="Path"
                            d="M344.15,235a3.22,3.22,0,1,0,2.29,4A3.23,3.23,0,0,0,344.15,235Z" fill="#0edcff" />
                        <path id="Path-143" data-name="Path"
                            d="M337.55,244.08a1.61,1.61,0,1,0,1.15,2A1.62,1.62,0,0,0,337.55,244.08Z" fill="#0edcff" />
                        <path id="Path-144" data-name="Path"
                            d="M352.55,210.14a2.38,2.38,0,1,0,1.7,2.92A2.39,2.39,0,0,0,352.55,210.14Z" fill="#fefa00" />
                        <path id="Path-Copy-2-2" data-name="Path-Copy"
                            d="M353.35,217.75a1.12,1.12,0,1,0,.87,1.39A1.16,1.16,0,0,0,353.35,217.75Z" fill="#fefa00" />
                        <path id="Path-Copy-3-2" data-name="Path-Copy-3"
                            d="M335.71,219.69a2.38,2.38,0,1,0,1.7,2.91A2.39,2.39,0,0,0,335.71,219.69Z" fill="#82c31f" />
                        <path id="Path-Copy-2-3" data-name="Path-Copy-2"
                            d="M329.09,224a1.12,1.12,0,1,0,.87,1.39A1.15,1.15,0,0,0,329.09,224Z" fill="#82c31f" />
                        <path id="Path-Copy-4-2" data-name="Path-Copy-4"
                            d="M332.16,219.89a.7.7,0,1,0,.5.86A.71.71,0,0,0,332.16,219.89Z" fill="#82c31f" />
                        <path id="Path-Copy-5-2" data-name="Path-Copy-5"
                            d="M338.51,228.84a.7.7,0,1,0-.37,1.35.71.71,0,0,0,.87-.49A.71.71,0,0,0,338.51,228.84Z"
                            fill="#0edcff" />
                        <polygon id="Path-145" data-name="Path"
                            points="329.5 246.13 332.83 233.69 331.34 233.29 328.01 245.73 329.5 246.13"
                            fill="#bc8f6f" />
                        <polygon id="Path-146" data-name="Path"
                            points="329.54 245.99 331.6 238.29 330.11 237.89 328.04 245.59 329.54 245.99"
                            fill="#cb9e78" />
                        <polygon id="Path-147" data-name="Path"
                            points="308.83 229.72 309.23 228.24 307.73 227.84 307.33 229.32 308.83 229.72"
                            fill="#b474d1" />
                        <polygon id="Path-148" data-name="Path"
                            points="310.06 231.65 310.46 230.16 308.97 229.76 308.57 231.25 310.06 231.65"
                            fill="#b474d1" />
                        <polygon id="Path-149" data-name="Path"
                            points="308 232.83 308.4 231.35 306.9 230.94 306.5 232.43 308 232.83" fill="#b474d1" />
                        <polygon id="Path-150" data-name="Path"
                            points="313.4 240.94 313.8 239.46 312.31 239.06 311.91 240.54 313.4 240.94"
                            fill="#b474d1" />
                        <g id="Group-10" data-name="Group">
                            <path id="Combined-Shape-2" data-name="Combined-Shape"
                                d="M316.14,206l-1.56-.42-.42,1.55,1.56.42Zm3.52-.73-1.55-.41-.42,1.55,1.56.42Zm2.7,2.39-1.56-.41-.41,1.55,1.55.42Zm3.53-.72-1.56-.41-.41,1.55,1.55.42Zm2.69,2.39-1.55-.42-.42,1.56,1.56.42Z"
                                fill="#cfcb00" />
                        </g>
                    </g>
                </g>
            </g>
            <g id="Slice-3">
                <path id="sliceBkg_3" data-name="sliceBkg 3" d="M379,190H190L353.71,95.5A188.13,188.13,0,0,1,379,190Z"
                    fill="#ff7d2f" fill-rule="evenodd" />
                <g id="icon-3">
                    <path id="Path-151" data-name="Path"
                        d="M340.92,151.94l-1.4-5.21a.31.31,0,0,1-.17.13l-3.42.91.33,1.26-4-2.29a3.48,3.48,0,0,1-1.2.64l-2.22.6,9.15,6a1.86,1.86,0,0,0,1.56.28A1.88,1.88,0,0,0,340.92,151.94Z"
                        fill="#ffd5b3" />
                    <path id="Path-152" data-name="Path"
                        d="M339.59,146.63l-.62-2.32-3.13-1.81a.09.09,0,0,0-.13,0l-1.78,3.08.63,2.35a.29.29,0,0,0,.37.21l4.45-1.19A.3.3,0,0,0,339.59,146.63Z"
                        fill="#08375e" />
                    <path id="Shape-13" data-name="Shape"
                        d="M327.06,135.21a8,8,0,1,0-5.64,9.78A8,8,0,0,0,327.06,135.21Zm-13.37,3.58a5.86,5.86,0,1,1,7.18,4.14A5.86,5.86,0,0,1,313.69,138.79Z" />
                    <path id="Shape-14" data-name="Shape"
                        d="M313,139a6.59,6.59,0,1,1,8.08,4.67A6.61,6.61,0,0,1,313,139Zm11.31-3a5.11,5.11,0,1,0-3.62,6.27A5.12,5.12,0,0,0,324.29,136Z" />
                    <path id="Shape-15" data-name="Shape"
                        d="M335.33,166.06a8,8,0,1,0-5.65,9.78A8,8,0,0,0,335.33,166.06ZM322,169.65a5.86,5.86,0,1,1,7.17,4.14A5.87,5.87,0,0,1,322,169.65Z" />
                    <path id="Shape-16" data-name="Shape"
                        d="M321.24,169.84a6.6,6.6,0,1,1,8.08,4.66A6.61,6.61,0,0,1,321.24,169.84Zm11.32-3a5.11,5.11,0,1,0-3.62,6.26A5.12,5.12,0,0,0,332.56,166.81Z" />
                    <g id="Group-11" data-name="Group">
                        <path id="Path-153" data-name="Path"
                            d="M321.17,146.81a.4.4,0,0,1,.42.15.11.11,0,0,0,.12,0l.92-.33-2.11-7.91,8.79,4.85s0,0,0,0l.72-1.24L320,136.77a.89.89,0,0,0-1,0,.86.86,0,0,0-.28.93l2.43,9.07Z"
                            fill="#368c0e" />
                        <path id="Path-154" data-name="Path"
                            d="M340.58,167.35a2.81,2.81,0,0,0,2-3.45l-.68-2.55a1.48,1.48,0,0,1-1.44.35l.69,2.59a1.34,1.34,0,0,1-2.58.69l-5-18.81a.2.2,0,0,1-.13,0l-.35-.21H333a.09.09,0,0,0-.06.06,2.34,2.34,0,0,1-.73.85l3.1,11.57-9.58-5.28a3.09,3.09,0,0,1-.64,1.34l10.75,5.92.12.45-8.75,6.7a.75.75,0,0,0-.27.78.91.91,0,0,0,.13.26.75.75,0,0,0,.78.27.91.91,0,0,0,.26-.13l8.27-6.33.79,3A2.82,2.82,0,0,0,340.58,167.35Z"
                            fill="#368c0e" />
                    </g>
                    <path id="Path-155" data-name="Path"
                        d="M325.74,151.77a3,3,0,0,0-2.6-2.25l-.68.18a.11.11,0,0,0-.07.12l.53,2a.41.41,0,0,1-.28.49l-1.21.32a.39.39,0,0,1-.48-.28l-.48-1.77a3.06,3.06,0,1,0,5.27,1.22Z"
                        fill="#9ea7af" />
                    <path id="Path-156" data-name="Path"
                        d="M331.12,147.48a3.15,3.15,0,0,0,1.91-1.54L329.71,144l-8.13,2.92a.35.35,0,0,1,.07.15l.73,2.74Z"
                        fill="#ffb98a" />
                    <path id="Path-157" data-name="Path" d="M350.85,143.2a4.12,4.12,0,0,0,2.13,8l2.1-.56-2.13-8-2.1.56Z"
                        fill="#ffd5b3" />
                    <path id="Path-158" data-name="Path"
                        d="M353,142.65l-.29.06-1.81.49a4.11,4.11,0,0,0-3,3.21l5.69-1.52Z" fill="#775436" />
                    <path id="Path-159" data-name="Path"
                        d="M358.81,145.33c-.59-2.2-2.17-3.68-4.36-3.09l-.12,0-.9-3.35a.79.79,0,1,0-1.52.41l3,11.31,1.52-.41h0C358.67,149.64,359.39,147.53,358.81,145.33Z"
                        fill="#ef5050" />
                    <path id="Path-160" data-name="Path"
                        d="M358.81,145.33l-.18-.56c.33,2-.45,3.8-2.46,4.34h0l-1.52.41.3,1.12,1.52-.41h0C358.67,149.64,359.39,147.53,358.81,145.33Z"
                        opacity="0.1" style="isolation:isolate" />
                    <path id="Path-161" data-name="Path"
                        d="M321.46,152.69a.49.49,0,0,1-.61-.34l-1.26-4.71a.49.49,0,0,1,.35-.6l1.21-.33a.49.49,0,0,1,.6.35l1.26,4.71a.49.49,0,0,1-.35.6Z"
                        fill="#0f0f0f" />
                    <g id="Group-12" data-name="Group" opacity="0.1">
                        <path id="Path-162" data-name="Path"
                            d="M320.47,149l1.2-.32a.5.5,0,0,1,.61.35l-.53-2a.49.49,0,0,0-.6-.35l-1.21.33a.49.49,0,0,0-.35.6l.53,2A.51.51,0,0,1,320.47,149Z"
                            fill="#0f0f0f" />
                    </g>
                    <path id="Path-163" data-name="Path"
                        d="M335.7,142.53l7.5,4.33a.48.48,0,0,1-.16-.26.43.43,0,0,1,0-.25,5.2,5.2,0,0,1,3.75-3.92,5.71,5.71,0,0,1,1.16-.18.7.7,0,0,1,.25.05l-.21-.13-9.05-5.23Z"
                        fill="#fcdb67" />
                    <path id="Path-164" data-name="Path"
                        d="M338.23,138.16l7.64,4.41a5.85,5.85,0,0,1,.74-.25,5.71,5.71,0,0,1,1.16-.18.55.55,0,0,1,.28.07l-.07,0-9.05-5.23Z"
                        opacity="0.1" style="isolation:isolate" />
                    <path id="Path-165" data-name="Path"
                        d="M344,160.66l-.78-2.93,1.28-5.31,4.24-7.35a2.11,2.11,0,0,0,.21-1.61,2.14,2.14,0,0,0-.89-1.23.56.56,0,0,0-.31-.09,5.71,5.71,0,0,0-1.16.18,5.2,5.2,0,0,0-3.75,3.92.43.43,0,0,0,0,.25.51.51,0,0,0,.24.32l.67.39-2,4.52a.56.56,0,0,0,0,.12l-1.16,6.78a.44.44,0,0,0,0,.2h0a1.48,1.48,0,0,1,.67,2.88l-.09,0a1,1,0,0,0,1.06.41l1.12-.3A1,1,0,0,0,344,160.66Z"
                        fill="#ffb98a" />
                    <circle id="Oval-2" data-name="Oval" cx="340.87" cy="160.28" r="1.58" fill="#046699" />
                    <path id="Path-166" data-name="Path"
                        d="M351.68,149.46a.8.8,0,0,1,.56-1l.71-.19a.79.79,0,1,1,.41,1.53l-.71.19A.8.8,0,0,1,351.68,149.46Z"
                        fill="#775436" />
                    <path id="Path-167" data-name="Path"
                        d="M333.75,146.13,339,137v0l-2.66-1.53a2.13,2.13,0,0,0-2.91.78l-4.21,7.28a.31.31,0,0,0,0,.23.31.31,0,0,0,.14.18l4,2.3a.31.31,0,0,0,.41-.1Z"
                        fill="#046699" />
                </g>
            </g>
            <g id="Slice-2">
                <path id="sliceBkg_2" data-name="sliceBkg 2"
                    d="M353.14,95.82,190,190,284.21,26.86A187.53,187.53,0,0,1,353.14,95.82Z" fill="#ffc703"
                    fill-rule="evenodd" />
                <g id="icon_2" data-name="icon 2">
                    <polygon id="Path-168" data-name="Path"
                        points="298.03 115.82 264.09 81.88 278.94 76.64 303.26 100.97 298.03 115.82" fill="#f3f3f3" />
                    <path id="Path-169" data-name="Path"
                        d="M298,115.82h0L264.09,81.88h0a2.64,2.64,0,0,0,0,3.67l30.26,30.27A2.65,2.65,0,0,0,298,115.82Z"
                        fill="#ced6e0" />
                    <g id="Group-13" data-name="Group">
                        <polygon id="Path-170" data-name="Path"
                            points="282.76 83.29 283.61 82.72 282.05 81.17 281.13 81.66 282.76 83.29" fill="#415a6b" />
                        <polygon id="Path-171" data-name="Path"
                            points="298.88 99.41 300.5 101.04 300.93 100.05 299.3 98.42 298.88 99.41" fill="#415a6b" />
                        <polygon id="Path-172" data-name="Path"
                            points="298.17 100.83 299.87 102.52 300.29 101.39 298.67 99.77 298.17 100.83"
                            fill="#415a6b" />
                        <polygon id="Path-173" data-name="Path"
                            points="287.14 87.67 287.92 87.04 286.36 85.48 285.51 86.05 287.14 87.67" fill="#415a6b" />
                        <polygon id="Path-174" data-name="Path"
                            points="289.4 89.94 290.11 89.23 288.56 87.67 287.78 88.31 289.4 89.94" fill="#415a6b" />
                        <polygon id="Path-175" data-name="Path"
                            points="284.95 85.48 285.8 84.92 284.24 83.36 283.32 83.86 284.95 85.48" fill="#415a6b" />
                        <polygon id="Path-176" data-name="Path"
                            points="289.9 95.52 289.05 96.51 290.89 98.35 291.67 97.29 289.9 95.52" fill="#415a6b" />
                        <polygon id="Path-177" data-name="Path"
                            points="294.78 100.4 294.07 101.53 295.91 103.37 296.55 102.17 294.78 100.4"
                            fill="#415a6b" />
                        <polygon id="Path-178" data-name="Path"
                            points="281.48 80.6 279.86 78.98 278.87 79.4 280.49 81.03 281.48 80.6" fill="#415a6b" />
                        <polygon id="Path-179" data-name="Path"
                            points="277.1 82.72 275.33 80.96 273.99 81.45 275.83 83.29 277.1 82.72" fill="#415a6b" />
                        <polygon id="Path-180" data-name="Path"
                            points="280.14 85.77 279.01 86.47 288.41 95.88 289.26 94.89 280.14 85.77" fill="#415a6b" />
                        <polygon id="Path-181" data-name="Path"
                            points="278.66 81.88 276.96 80.18 275.69 80.74 277.45 82.51 278.66 81.88" fill="#415a6b" />
                        <polygon id="Path-182" data-name="Path"
                            points="291.6 92.13 292.23 91.35 290.68 89.8 289.97 90.5 291.6 92.13" fill="#415a6b" />
                        <polygon id="Path-183" data-name="Path"
                            points="277.74 83.36 276.54 84 278.37 85.84 279.5 85.13 277.74 83.36" fill="#415a6b" />
                        <polygon id="Path-184" data-name="Path"
                            points="283.68 86.33 284.6 85.69 282.97 84.07 281.98 84.63 283.68 86.33" fill="#415a6b" />
                        <polygon id="Path-185" data-name="Path"
                            points="297.39 102.45 299.16 104.22 299.73 102.95 298.03 101.25 297.39 102.45"
                            fill="#415a6b" />
                        <polygon id="Path-186" data-name="Path"
                            points="296.62 104.08 298.45 105.92 298.95 104.57 297.18 102.81 296.62 104.08"
                            fill="#415a6b" />
                        <polygon id="Path-187" data-name="Path"
                            points="286.29 89.51 285.37 90.43 287.07 92.13 288.06 91.28 286.29 89.51" fill="#415a6b" />
                        <polygon id="Path-188" data-name="Path"
                            points="283.96 87.18 282.97 88.03 284.67 89.72 285.73 88.95 283.96 87.18" fill="#415a6b" />
                        <polygon id="Path-189" data-name="Path"
                            points="281.63 84.85 280.49 85.55 282.26 87.32 283.32 86.54 281.63 84.85" fill="#415a6b" />
                        <polygon id="Path-190" data-name="Path"
                            points="292.94 95.59 293.58 94.67 291.95 93.05 291.24 93.9 292.94 95.59" fill="#415a6b" />
                        <polygon id="Path-191" data-name="Path"
                            points="295.27 97.93 295.84 96.94 294.21 95.31 293.58 96.23 295.27 97.93" fill="#415a6b" />
                        <polygon id="Path-192" data-name="Path"
                            points="290.61 93.26 291.31 92.41 289.69 90.78 288.91 91.56 290.61 93.26" fill="#415a6b" />
                        <polygon id="Path-193" data-name="Path"
                            points="288.34 91 289.12 90.22 287.5 88.59 286.65 89.3 288.34 91" fill="#415a6b" />
                        <polygon id="Path-194" data-name="Path"
                            points="286.01 88.66 286.86 87.96 285.23 86.33 284.31 86.97 286.01 88.66" fill="#415a6b" />
                        <polygon id="Path-195" data-name="Path"
                            points="280.99 84.21 279.29 82.51 278.09 83.15 279.86 84.92 280.99 84.21" fill="#415a6b" />
                        <polygon id="Path-196" data-name="Path"
                            points="288.63 91.85 287.78 92.84 289.47 94.53 290.39 93.61 288.63 91.85" fill="#415a6b" />
                        <polygon id="Path-197" data-name="Path"
                            points="295.84 98.49 297.54 100.19 298.1 99.2 296.4 97.5 295.84 98.49" fill="#415a6b" />
                        <polygon id="Path-198" data-name="Path"
                            points="294.99 100.05 296.76 101.82 297.39 100.61 295.7 98.92 294.99 100.05"
                            fill="#415a6b" />
                        <polygon id="Path-199" data-name="Path"
                            points="298.24 98.78 298.74 97.86 297.18 96.3 296.62 97.15 298.24 98.78" fill="#415a6b" />
                        <polygon id="Path-200" data-name="Path"
                            points="296.62 95.73 296.05 96.58 292.23 92.77 292.87 91.99 296.62 95.73" fill="#415a6b" />
                        <polygon id="Path-201" data-name="Path"
                            points="290.96 94.18 290.18 95.24 291.88 96.94 292.73 95.95 290.96 94.18" fill="#415a6b" />
                        <polygon id="Path-202" data-name="Path"
                            points="293.29 96.65 291.6 99.06 293.43 100.9 294.99 98.35 293.29 96.65" fill="#415a6b" />
                        <polygon id="Path-203" data-name="Path"
                            points="282.4 83.5 278.51 79.61 277.38 80.04 281.41 84.07 282.4 83.5" fill="#415a6b" />
                    </g>
                    <polygon id="Path-204" data-name="Path"
                        points="286.15 101.67 278.23 93.75 283.11 92.13 287.78 96.8 286.15 101.67" fill="#ced6e0" />
                    <path id="Path-205" data-name="Path"
                        d="M295.13,60.45,278.94,76.64,303.26,101l16.2-16.2a2.12,2.12,0,0,0,0-3L298.1,60.45A2.11,2.11,0,0,0,295.13,60.45Z"
                        fill="#415a6b" />
                    <rect id="Rectangle-12" data-name="Rectangle" x="289.45" y="64.9" width="20.9" height="30.2"
                        transform="translate(31.27 235.5) rotate(-45)" fill="#55c0eb" />
                </g>
            </g>
            <g id="Slice-1">
                <path id="sliceBkg_1" data-name="sliceBkg 1" d="M284.5,26.34,190,190V1A188.12,188.12,0,0,1,284.5,26.34Z"
                    fill="#024181" fill-rule="evenodd" />
                <g id="icon_1" data-name="icon 1">
                    <g id="Group-14" data-name="Group">
                        <path id="Path-206" data-name="Path"
                            d="M245.38,31.45l-2.48,1.66-4.14-.83-2.49-.83-3.31.83-2.48-.83,1.66-3.31h3.31l3.24-1.62A23.87,23.87,0,0,1,245.38,31.45Z"
                            fill="#03aa6f" />
                        <path id="Path-207" data-name="Path"
                            d="M226.34,28.14l-.82,2.49-2.49.82-2.48,4.14-4.14,2.49-5.79.82v2.49L212.27,43v3.31l-2.48-1.65L207.31,43l-1.44-4.33a24,24,0,0,1,13.16-13l2.35,1.58Z"
                            fill="#03aa6f" />
                        <polygon id="Path-208" data-name="Path"
                            points="228 51.32 227.17 55.46 223.86 58.77 223.86 61.25 220.55 63.73 220.55 67.87 218.07 67.04 216.41 62.91 216.41 54.63 212.27 53.8 210.62 50.49 210.62 48.01 212.27 46.35 214.76 43.87 216.41 47.18 222.21 47.18 224.69 51.32 228 51.32"
                            fill="#03aa6f" />
                        <path id="Path-209" data-name="Path"
                            d="M248.94,36.28a24,24,0,0,1-1.33,25.55l-2.23-2.24V56.28L243.72,53l-1.65-3.31V46.35l-2.48-1.65-3.32.82L230.48,43l-.83-5.79,2.49-2.48h5l1.66,2.48,5,.83,5-1.66Z"
                            fill="#03aa6f" />
                    </g>
                    <path id="Path-210" data-name="Path"
                        d="M233,32.28l3.31-.83,2.49.83,4.14.83,2.48-1.66a24,24,0,0,1,3.56,4.83l-.25.14-5,1.66-5-.83-1.66-2.48h-5l-2.49,2.48.83,5.79,5.79,2.48,3.32-.82,2.48,1.65v3.31L243.72,53l1.66,3.31v3.31l2.23,2.24a24,24,0,0,1-41.74-23.12L207.31,43l2.48,1.66,2.48,1.65L210.62,48v2.48l1.65,3.31,4.14.83v8.28L218.07,67l2.48.83V63.73l3.31-2.48V58.77l3.31-3.31.83-4.14h-3.31l-2.49-4.14h-5.79l-1.65-3.31-2.49,2.48V43l-1.65-1.65V38.9l5.79-.82,4.14-2.49L223,31.45l2.49-.82.82-2.49-5-.82L219,25.74a24,24,0,0,1,19.66.78l-3.24,1.62h-3.31l-1.66,3.31Z"
                        fill="#86daf1" />
                </g>
            </g>
            <path id="stroke"
                d="M190,0C294.93,0,380,85.07,380,190S294.93,380,190,380,0,294.93,0,190,85.07,0,190,0Zm0,8A182,182,0,1,0,372,190,182,182,0,0,0,190,8Z"
                fill="#ededed" />
        </g>
    </g>
    <g id="pointer">
        <polygon id="Rectangle-13" data-name="Rectangle"
            points="176.15 93.62 190 74 203.85 93.62 203.85 306 190 286.38 176.15 306 176.15 93.62" fill-rule="evenodd"
            opacity="0.7" style="isolation:isolate" />
        <circle id="Oval-3" data-name="Oval" cx="190" cy="190.58" r="5.77" fill="#d8d8d8" stroke="#bdbdbd"
            stroke-width="2" />
    </g>
</svg>